<svg xmlns="http://www.w3.org/2000/svg" width="22" height="20" viewBox="0 0 22 20">
  <path id="Combined_shape_817" data-name="Combined shape 817" d="M13.006,21a.888.888,0,0,1-.184-.018.922.922,0,0,1-.5-.269L3.787,11.84a6.535,6.535,0,0,1,0-8.981,5.952,5.952,0,0,1,8.644,0L13,3.451l.569-.591a5.953,5.953,0,0,1,8.645,0,6.535,6.535,0,0,1,0,8.981l-8.54,8.872A.917.917,0,0,1,13.006,21ZM8.109,2.962A4.116,4.116,0,0,0,5.123,4.247a4.514,4.514,0,0,0,0,6.205L13,18.638l7.878-8.186a4.514,4.514,0,0,0,0-6.205,4.112,4.112,0,0,0-5.972,0L13.667,5.532a.947.947,0,0,1-1.336,0L11.1,4.247A4.12,4.12,0,0,0,8.109,2.962Z" transform="translate(-2 -1)"/>
</svg>
